<svg id="Layer_1" data-name="Layer 1" xmlns="http://www.w3.org/2000/svg" viewBox="0 0 198.5999 115.8511">
  <defs>
    <style>
      .cls-1 {
        fill: #003057;
      }

      .cls-2 {
        fill: #f3fafd;
      }

      .cls-3 {
        fill: #6abf4b;
      }

      .cls-4 {
        fill: #40683c;
      }

      .cls-5 {
        fill: none;
      }
    </style>
  </defs>
  <title>LavingtonBrandBoard</title>
  <path class="cls-1" d="M194.8352,36.4723l-3.0978-.3942c-21.2191-2.7026-42.7165-4.4767-64.2018-5.3087a36.43,36.43,0,0,1,5.4886-4.313,34.4233,34.4233,0,0,0-12.019,2.8961c2.0249-2.2168,4.0272-4.1614,5.1852-5.2147l4.9708-4.521-6.6883.6407a24.7377,24.7377,0,0,0-8.428,2.6323,50.4979,50.4979,0,0,0-1.3134-10.9271L113.6,8.0011,110.8953,11.11a31.828,31.828,0,0,0-4.7075,6.7325C104.92,12.0107,102.6789,5.9358,100.71,2.8157l-.4878-.7739L98.804,0,98.27.68,96.9266,2.82c-1.4078,2.2418-3.5043,8.7414-4.85,14.9663a31.907,31.907,0,0,0-4.3711-6.7736L84.98,8.23l-1.0281,3.757a44.64,44.64,0,0,0-1.56,10.6812,20.49,20.49,0,0,0-8.5322-2.42l-8.1023-.3006,6.8032,4.4107a18.4193,18.4193,0,0,1,3.9161,4.1177,32.8913,32.8913,0,0,0-9.7917-2.02,36.4643,36.4643,0,0,1,5.4482,4.2749c-21.8409.814-43.7,2.6-65.2714,5.3469l-3.097.3941L0,36.9513l.4719,3.7655L7.9267,100.205l.4737,3.78,3.7793-.4811,3.1017-.395q8.0083-1.02,16.07-1.8445,1.41,7.2926,2.8077,14.5865,1.8216-.2335,3.6431-.4641a491.4842,491.4842,0,0,1,122.9962,0q1.8227.23,3.643.4641,1.395-7.2942,2.8082-14.5864,8.058.8257,16.0693,1.8444l3.1016.395,3.7793.4812.4737-3.78,7.4548-59.4882.4719-3.7656Z"/>
  <path class="cls-2" d="M11.8326,46.1633l5.7585,45.9532a676.0624,676.0624,0,0,1,163.4189,0l5.7574-45.9532A721.8815,721.8815,0,0,0,11.8326,46.1633Z"/>
  <path class="cls-3" d="M191.1891,40.3889a727.7484,727.7484,0,0,0-183.7783,0l-2.56.3257,7.32,58.41,2.5618-.3263a669.8189,669.8189,0,0,1,169.135,0l2.562.3263,7.32-58.41Zm-9.7739,52.8717a674.9492,674.9492,0,0,0-164.23,0l-.5376.0658L10.6194,45.2177l.54-.0665a722.9038,722.9038,0,0,1,176.2808,0l.5405.0665-6.0279,48.1087Z"/>
  <path class="cls-4" d="M187.4405,45.1512a722.9038,722.9038,0,0,0-176.2808,0l-.54.0665,6.0285,48.1087.5376-.0658a674.9492,674.9492,0,0,1,164.23,0l.5379.0658,6.0279-48.1087Zm-6.43,46.9653a676.0624,676.0624,0,0,0-163.4189,0L11.8326,46.1633a721.8815,721.8815,0,0,1,174.9348,0Z"/>
  <g>
    <path class="cls-2" d="M40.6514,102.9083q.904-.1145,1.81-.2253,1.6624,1.6392,3.3035,3.29-.2114-1.8173-.4218-3.6342.96-.1113,1.9208-.2187.386,3.4385.7711,6.8777-.8385.0945-1.677.1912-1.6914-1.7148-3.4073-3.4184.23,1.8849.46,3.7691-.9463.1157-1.8919.235-.4337-3.4341-.8674-6.8666"/>
    <path class="cls-2" d="M50.9282,101.6743q.9365-.0968,1.8735-.1905,1.8393,3.3183,3.6364,6.65-1.0265.0969-2.0536.1973-.3124-.5906-.6257-1.18-1.3366.1323-2.6726.2728-.1824.6407-.3641,1.2811-1.0063.1078-2.0128.2187,1.0876-3.6264,2.2189-7.2491m2.127,4.0464q-.486-.94-.9741-1.8787-.2948,1.0188-.585,2.0381.78-.0812,1.5591-.1594"/>
    <path class="cls-2" d="M57.4419,102.7791q-1.0486.0947-2.0981.195-.0789-.8373-.1586-1.674,3.0769-.2913,6.157-.5441.068.8383.1364,1.6754-1.05.0857-2.0988.1765.2257,2.6111.4508,5.2214-.9586.0824-1.9164.1691-.237-2.61-.4723-5.2193"/>
    <path class="cls-2" d="M62.4183,104.5678q-.1557-1.9373-.31-3.8737.9874-.0789,1.9765-.1542.1445,1.9183.2906,3.8359c.0763.9949.6183,1.4293,1.3915,1.373s1.2485-.5456,1.18-1.5124l-.2736-3.8855q.9887-.069,1.978-.135.1257,1.9138.2536,3.8277c.1453,2.23-1.0661,3.2887-3.0315,3.4326s-3.2806-.75-3.4555-2.9084"/>
    <path class="cls-2" d="M69.81,100.14q1.6626-.1056,3.3251-.1994a3.09,3.09,0,0,1,2.3293.6257,2.1239,2.1239,0,0,1,.7029,1.5784l.0007.02a2.1952,2.1952,0,0,1-1.3256,2.1967q.8952,1.16,1.7823,2.3235-1.1088.0556-2.2175.1164-.755-1.0088-1.5161-2.0143l-.02.0014q-.4125.0234-.8259.0482.0635,1.0453.1246,2.0922-.96.0579-1.9194.1179-.22-3.453-.44-6.9067m3.4229,3.122c.6583-.0371,1.02-.3737.9927-.8771l-.0007-.0193c-.03-.5434-.4456-.7984-1.0965-.7613q-.635.0367-1.2707.0741.0489.8285.0986,1.6577.6382-.0378,1.2766-.0741"/>
    <path class="cls-2" d="M79.3461,99.5806q.94-.04,1.8794-.0779,1.6347,3.424,3.2257,6.8577-1.03.0345-2.0595.0734-.2758-.6083-.5531-1.2158-1.34.0511-2.6815.1112-.22.6282-.44,1.2566-1.0109.0456-2.0195.0963,1.3011-3.5541,2.6482-7.1015m1.8772,4.1672q-.4282-.9675-.8586-1.9342-.3547,1-.7057,1.9987.7816-.0333,1.5643-.0645"/>
    <path class="cls-2" d="M84.9106,99.4213q.9753-.03,1.95-.0578.0723,2.62.1439,5.2385,1.6859-.0456,3.371-.08.0166.84.0333,1.68-2.64.0532-5.28.1371-.109-3.4586-.2187-6.9177"/>
    <path class="cls-2" d="M91.1076,99.2663q.9753-.0178,1.9506-.0319.0378,2.62.0749,5.2393,1.6869-.0234,3.3717-.0356.0055.84.0119,1.6807-2.6412.0189-5.2815.0674-.0635-3.46-.1276-6.92"/>
    <path class="cls-2" d="M98.0453,103.52q-1.3333-2.1606-2.6912-4.3125,1.1109-.0111,2.2226-.0163.73,1.2578,1.4524,2.517.7228-1.2622,1.4538-2.5214,1.092.0011,2.1826.0081-1.35,2.1419-2.6771,4.2918-.001,1.31-.0007,2.62-.9664,0-1.9328.0037-.0045-1.2956-.01-2.59"/>
    <path class="cls-2" d="M105.4554,105.1129q.5437-.6316,1.0913-1.2611a3.63,3.63,0,0,0,2.2441.8682c.516.01.7977-.1617.8044-.4582l.0007-.02c.0059-.2862-.2195-.45-1.1617-.6851-1.4791-.3639-2.6208-.7925-2.6022-2.2159v-.02c.0148-1.2848,1.0623-2.2034,2.7534-2.1722a4.4317,4.4317,0,0,1,2.8743.9823q-.5037.6651-1.0045,1.3307a3.5281,3.5281,0,0,0-1.95-.722c-.4707-.0089-.7043.1853-.7087.4329l-.0007.0193c-.0052.3165.2335.4582,1.1988.6939,1.6035.3781,2.59.9193,2.5562,2.2138l-.0008.02c-.037,1.413-1.1765,2.2234-2.86,2.1907a4.9029,4.9029,0,0,1-3.2345-1.1973"/>
    <path class="cls-2" d="M112.4245,103.2417l.1046-3.8847q.99.0277,1.9809.0578-.0612,1.9216-.1208,3.844c-.0305.9986.4618,1.4879,1.2366,1.5138s1.2981-.4084,1.3344-1.3767q.0713-1.9471.1431-3.8929.99.0356,1.98.0764-.0778,1.9171-.1557,3.8329c-.0934,2.2329-1.4109,3.1567-3.38,3.0892-1.9684-.0659-3.179-1.0949-3.1227-3.26"/>
    <path class="cls-2" d="M120.2432,99.6286q1.508.0645,3.0144.14c1.78.089,2.8751,1.0535,2.7883,2.583l-.0015.02c-.0926,1.6288-1.4034,2.4153-3.1315,2.3294l-.9549-.0467-.0934,1.9757q-.9607-.0456-1.9209-.0875.15-3.4573.2995-6.914m2.7038,3.57c.6887.0341,1.1254-.3,1.1536-.8422l.0014-.02c.0312-.5924-.3729-.93-1.075-.9653q-.4548-.0222-.9111-.0437-.0433.913-.086,1.8267.4583.0211.9171.0445"/>
    <path class="cls-2" d="M127.0079,99.97q2.8279.1635,5.6537.36-.0579.8141-.1134,1.6273-1.8561-.129-3.7121-.2439c-.0215.3485-.0437.6969-.0645,1.0461q1.677.1033,3.354.2194-.0523.754-.1038,1.5087-1.6715-.1144-3.3436-.2187c-.0222.3655-.0459.73-.0682,1.0958q1.8672.1145,3.7328.2454-.0567.8139-.1142,1.6273-2.8079-.1957-5.6188-.3581.199-3.4552.3981-6.91"/>
    <path class="cls-2" d="M133.7083,100.4043q1.6614.12,3.3221.2506a3.0922,3.0922,0,0,1,2.2248.9356,2.1266,2.1266,0,0,1,.4834,1.6585l-.0022.02a2.1955,2.1955,0,0,1-1.611,1.998q.7306,1.27,1.4531,2.5429-1.1076-.0945-2.2145-.1846-.6115-1.101-1.23-2.2l-.0208-.0015c-.275-.0215-.5493-.0422-.8244-.0638q-.0789,1.0453-.1586,2.09-.96-.0723-1.9187-.1416.2492-3.4518.4967-6.9037m2.9707,3.5556c.6569.0519,1.0616-.232,1.1017-.7347l.0014-.02c.0445-.5419-.3328-.85-.983-.9015q-.635-.05-1.27-.0986l-.126,1.6562q.6384.0489,1.2759.0986"/>
    <path class="cls-2" d="M140.9657,100.9832q.9786.0857,1.9558.175-.3159,3.4462-.6324,6.8925-.963-.089-1.9261-.1727l.6027-6.8948"/>
    <path class="cls-2" d="M143.64,104.7206l.0022-.0193a3.772,3.772,0,0,1,7.5.7451l-.0023.02a3.7736,3.7736,0,0,1-7.5-.7458m5.53.5523.0023-.0192a1.8051,1.8051,0,0,0-1.6-2.0455,1.77,1.77,0,0,0-1.9483,1.6629l-.0015.02a1.8072,1.8072,0,0,0,1.5895,2.0373,1.7774,1.7774,0,0,0,1.9579-1.6555"/>
    <path class="cls-2" d="M152.5348,102.1392q1.6569.1868,3.3116.384a3.0989,3.0989,0,0,1,2.1886,1.0246,2.1227,2.1227,0,0,1,.4166,1.6762l-.0022.0193a2.1966,2.1966,0,0,1-1.6911,1.932q.6795,1.299,1.3508,2.5992-1.1031-.1389-2.207-.2728-.5683-1.1255-1.1425-2.2486l-.0208-.0022q-.41-.0489-.8214-.0964-.1224,1.041-.2424,2.0818-.9575-.1112-1.9128-.2194.3859-3.4385.7726-6.8777m2.8283,3.672c.6546.0786,1.0705-.189,1.1313-.69l.0022-.0193c.066-.54-.2988-.8637-.9467-.9408q-.6327-.0756-1.2663-.149-.0968.8239-.1927,1.65.636.0746,1.2722.15"/>
  </g>
  <g>
    <path class="cls-1" d="M17.2206,50.6638q2.6151-.33,5.2318-.6392.8184,6.92,1.6353,13.8386,4.4769-.5286,8.9576-.9947.2318,2.2225.462,4.4457-6.9961.7283-13.98,1.6095-1.1528-9.13-2.3065-18.26"/>
    <path class="cls-1" d="M40.3791,48.0242q2.5282-.2283,5.0582-.4376Q50.2316,56.4914,54.8,65.4622q-2.7361.1919-5.4715.4079-.8-1.5866-1.6065-3.1687-3.5682.2877-7.1342.6171-.5091,1.6963-1.0114,3.3948-2.68.2523-5.3581.5281,2.9645-9.6214,6.161-19.2172M45.913,58.866q-1.2546-2.52-2.525-5.037-.8332,2.6985-1.6491,5.3977,2.0867-.1872,4.1741-.3607"/>
    <path class="cls-1" d="M51.1329,47.2739q2.937-.2168,5.8748-.4071Q59.5372,52.54,61.99,58.2306q1.7772-5.9368,3.6322-11.8637,2.8857-.15,5.7721-.2717Q67.94,55.5193,64.7059,64.9776q-2.37.1289-4.738.2754-4.31-9.0188-8.835-17.9791"/>
    <path class="cls-1" d="M73.3476,46.0143q2.6424-.105,5.2858-.1879.291,9.198.5814,18.3953-2.5695.0822-5.1382.1834-.3642-9.1958-.729-18.3908"/>
    <path class="cls-1" d="M82.1052,45.7259q2.4531-.065,4.9084-.1111,3.9963,4.7908,7.877,9.6288-.0332-4.8637-.067-9.7284,2.6049-.0172,5.2075-.0145-.0093,9.2026-.02,18.4045-2.2409-.0022-4.4815.0106-3.97-5.0247-8.0657-9.9986.0924,5.0476.1842,10.0945-2.53.0457-5.06.1126-.2419-9.1991-.4832-18.3984"/>
    <path class="cls-1" d="M102.6969,54.7642v-.0525c.0137-5.3619,4.3779-9.56,10.2809-9.437a11.073,11.073,0,0,1,7.6175,2.8872q-1.5991,1.7487-3.18,3.5074a6.6723,6.6723,0,0,0-4.505-1.8462,4.8561,4.8561,0,0,0-4.8924,4.9647V54.84a4.9142,4.9142,0,0,0,4.97,5.1877,5.33,5.33,0,0,0,2.9907-.691q.03-1.1175.0578-2.2342-1.8378-.048-3.6771-.0853.0377-1.8663.0761-3.7326,4.3149.0867,8.6289.2321-.1394,4.1389-.2785,8.278a12.7747,12.7747,0,0,1-8.1023,2.6193c-5.7272-.121-10.0017-4.0736-9.9864-9.65"/>
    <path class="cls-1" d="M128.4151,50.6218q-2.8263-.1266-5.6533-.2283.081-2.2338.1613-4.467,8.3224.3,16.6375.812-.1371,2.2317-.2748,4.4617-2.8229-.1746-5.6495-.3234-.3677,6.9585-.7351,13.9161-2.5546-.1358-5.1093-.25.3116-6.96.6232-13.9208"/>
    <path class="cls-1" d="M139.8211,56.0277l.0031-.0525c.3165-5.2729,4.9761-9.2879,10.84-8.8275s9.7916,5.0986,9.281,10.3563c-.0015.0175-.0031.035-.0053.0525a10.1086,10.1086,0,0,1-20.1183-1.5288m14.8355,1.1049.0045-.0525a4.8063,4.8063,0,0,0-4.4122-5.3489,4.7127,4.7127,0,0,0-5.1085,4.5476l-.0038.0525a4.831,4.831,0,0,0,4.3879,5.3125,4.7474,4.7474,0,0,0,5.1321-4.5112"/>
    <path class="cls-1" d="M163.5357,48.658q2.4462.2411,4.8908.5008,3.3754,5.25,6.6321,10.5328.5707-4.83,1.1422-9.6607,2.59.3058,5.1785.6331-1.1539,9.13-2.3065,18.26-2.2283-.2808-4.4564-.5471-3.324-5.48-6.7743-10.9248-.5353,5.02-1.07,10.04-2.52-.2694-5.0416-.5174.903-9.1581,1.8051-18.3163"/>
  </g>
  <g>
    <path class="cls-1" d="M40.2885,84.4842c.1438,1.2968.6027,1.538,1.9512,1.3927q.056.5148.11,1.0288-3.534.3791-7.0642.8052-.0629-.5125-.1241-1.0266c1.347-.1621,1.74-.5008,1.5882-1.7967l-1.3287-11.32q-.4942.0582-.9893.1172c-1.5181.1811-1.6209.8743-1.8027,2.8q-.8584.106-1.7161.2138-.1575-2.0764-.3143-4.1527,6.3991-.806,12.8105-1.4611.3379,2.0557.675,4.1116-.8595.0879-1.7191.1773c-.659-1.8515-.9132-2.4816-2.4093-2.32q-.4611.05-.9207.1012.6265,5.6652,1.2533,11.3288"/>
    <path class="cls-1" d="M47.256,81.41q-.3848-3.9609-.7694-7.9212c-.1241-1.2746-.5-1.5562-1.7023-1.4588-.035-.3576-.0716-.716-.1073-1.0737q3.3971-.339,6.7963-.637.048.5378.0952,1.0746c-1.245.1324-1.5859.48-1.47,1.7563l.7108,7.8587c.2344,2.5752,1.2389,3.3842,3.3118,3.2076,1.9824-.1682,3.0394-1.1506,2.8317-3.7958q-.3083-3.8992-.6164-7.7993c-.1005-1.277-.4719-1.5647-1.7435-1.4832q-.0444-.5377-.089-1.0761,2.5341-.2065,5.0689-.3918.0389.5387.0784,1.0767c-1.1772.1081-1.5.449-1.4032,1.7267q.2967,3.9232.5928,7.8466c.2518,3.3879-1.2907,5.4311-5.2851,5.772-3.9944.347-5.941-1.0326-6.2994-4.6823"/>
    <path class="cls-1" d="M76.0309,83.3239q.0229.5172.0449,1.0334-2.2738.0995-4.5484.2192a42.5567,42.5567,0,0,0-2.4466-4.5271c-.8751-1.369-1.3774-1.7229-2.5455-1.7647q.12,1.9644.24,3.9274c.0769,1.2564.481,1.5684,1.6308,1.5014q.03.516.0594,1.0327-3.2965.1919-6.5932.4239-.0354-.516-.0723-1.0319c1.194-.0837,1.5113-.42,1.4253-1.6978q-.3482-5.1366-.6955-10.2733c-.086-1.2785-.4543-1.57-1.68-1.506q-.0387-.5388-.0761-1.0768,3.6687-.258,7.3413-.468c3.3156-.19,5.7622.939,5.91,4.1946.1263,2.7623-1.7815,4.0195-4.2334,4.3117l.0046.09a4.5711,4.5711,0,0,1,2.5889,1.4626A22.2291,22.2291,0,0,1,74.254,82.1c.4475.8348.6918,1.2275,1.7769,1.2244M67.5124,70.7493q-.7156.0423-1.4314.0853.1793,2.94.3585,5.8794.6848-.0423,1.3713-.0822c1.7129-.1,2.5028-.7481,2.3765-3.1056-.1149-2.1551-.9185-2.8788-2.6749-2.7769"/>
    <path class="cls-1" d="M83.7243,83.0411q.0159.5172.0312,1.0335-3.4929.1038-6.9836.2526-.0228-.5171-.0441-1.0334c1.1955-.05,1.522-.3774,1.471-1.6582q-.2043-5.1445-.4094-10.2885c-.051-1.28-.41-1.5814-1.6377-1.5517q-.0228-.54-.0457-1.0783,5.8056-.2478,11.615-.3729.1815,1.9188.36,3.8369-.8516.0183-1.7046.0388c-.5958-1.7845-.8629-2.2281-2.528-2.1817q-1.2362.0353-2.4732.076.09,2.73.18,5.46.71-.024,1.4192-.0457c1.4193-.0426,1.7769-.366,1.834-1.6491q.7579-.0206,1.5151-.0388.0572,2.3595.1149,4.7189-.751.0183-1.5021.0388c-.1233-1.2107-.4772-1.6072-1.8926-1.5646q-.7191.0217-1.4383.0457l.1461,4.4038c.0434,1.2815.4376,1.6042,1.9725,1.5577"/>
    <path class="cls-1" d="M101.83,82.81q-.0022.5172-.0038,1.0342-3.4941-.0136-6.9874.0175L94.83,82.8264c1.197-.01,1.5326-.3257,1.5258-1.6072q-.032-5.1482-.0632-10.2962c-.0076-1.2807-.3569-1.595-1.5836-1.6064q-.0046-.54-.01-1.0791,5.81-.0525,11.6195.0182.1166,1.9236.2306,3.8469-.8528-.01-1.7039-.0191c-.5364-1.8028-.7883-2.2563-2.4541-2.2654q-1.2375-.0057-2.474-.0069-.0022,2.7317-.003,5.4632.71,0,1.4207.0022c1.4185.0046,1.786-.3059,1.8873-1.5866q.7579.0045,1.5151.0114-.0217,2.3605-.0434,4.7212-.7523-.0069-1.5029-.0122c-.083-1.2138-.4231-1.6224-1.8386-1.627q-.7191-.0023-1.439-.003-.0012,2.2031-.0015,4.4061c-.0008,1.2822.3827,1.6178,1.9184,1.6231"/>
    <path class="cls-1" d="M114.8093,79.8479q-2.429-.0684-4.86-.1141-.3025.9612-.6027,1.9222c-.3128,1.0517.0243,1.1682,1.3325,1.2618q-.01.5181-.0206,1.0342-2.4908-.05-4.9806-.0784l.0114-1.035c.9725-.1,1.2906-.2983,1.6924-1.4839q2.2327-6.511,4.5705-13.003,1.4611.0332,2.9214.0731,2.1278,6.6034,4.1444,13.2213c.3455,1.1157.5593,1.4147,1.458,1.5624q-.0194.517-.04,1.0334-3.1984-.1245-6.3984-.21c.0091-.3439.019-.6886.0274-1.0334,1.3789-.03,1.5242-.3394,1.3-1.2008q-.2773-.9749-.5571-1.95m-4.35-1.7685q1.9256.0376,3.8505.0906-.565-1.9167-1.1369-3.8309a25.6906,25.6906,0,0,1-.6285-2.5553c-.0389-.0016-.0762-.0023-.115-.0031-.0761.2907-.2556,1.0509-.7708,2.5691q-.6039,1.8628-1.1993,3.73"/>
    <path class="cls-1" d="M135.5425,84.0041q-.0342.5148-.0692,1.0319-2.2726-.153-4.5469-.2846a42.3383,42.3383,0,0,0-1.9306-4.77c-.7184-1.4572-1.1788-1.8651-2.3355-2.0349q-.097,1.9645-.1956,3.929c-.0624,1.258.3044,1.6126,1.455,1.6727q-.0263.517-.054,1.0326-3.299-.1724-6.5985-.3059.0216-.5171.0418-1.0334c1.1955.0487,1.5479-.25,1.6026-1.5311q.2215-5.1423.4445-10.287c.0548-1.2793-.2778-1.61-1.503-1.6826l.0434-1.0783q3.6732.1483,7.3458.3455c3.3164.1781,5.6237,1.57,5.4121,4.8224-.18,2.7593-2.2152,3.7981-4.6853,3.8179-.0016.03-.0031.06-.0054.09a4.5738,4.5738,0,0,1,2.4124,1.7389,22.19,22.19,0,0,1,1.5356,3.114c.3524.8781.5518,1.2959,1.6308,1.4131M128.4646,70.565q-.7168-.0375-1.433-.073-.1472,2.9416-.2929,5.8832.686.0342,1.3713.07c1.7137.09,2.5706-.468,2.706-2.8248.1233-2.1543-.5951-2.9625-2.3514-3.0554"/>
    <path class="cls-1" d="M155.3973,72.0959c-1.3455-.0685-1.7214.2124-1.8051,1.0624a4.02,4.02,0,0,0-.0228.4718q-.0366,5.0795-.0891,10.1576c-.0175,1.3089.1469,1.7084,1.3789,1.88q-.0513.5034-.1042,1.0061-3.2646-.3369-6.5346-.6339.0456-.5034.0913-1.0076c1.2191.0662,1.5547-.1271,1.6331-.955a4.4979,4.4979,0,0,0,.0258-.5175q.0344-3.6424.0594-7.2872c.01-.6088.083-1.6407.1431-2.29.0144-.1637.03-.328.0449-.4924-.0381-.0038-.0769-.0068-.1149-.0106-.1089.4193-.4825,1.7167-.7869,2.5242q-1.8777,4.8969-3.7022,9.8053-1.0456-.0891-2.0912-.1751-1.0843-4.8593-2.2206-9.7155c-.2229-.9862-.4337-2.8057-.471-3.2364l-.1142-.0092c-.0555.4239-.2252,2.08-.369,3.0835q-.4761,3.4473-.9475,6.8953c-.1613,1.2732.0373,1.6483,1.3439,1.7473q-.0387.5044-.0768,1.009-2.4291-.186-4.8589-.3508.033-.5046.0677-1.0083c1.2655.04,1.5174-.3242,1.7031-1.6642q.7043-4.9975,1.4215-9.9956a4.2272,4.2272,0,0,0,.0579-.4916c.0616-.8516-.2634-1.17-1.5989-1.3295q.0354-.5262.0715-1.054,2.9885.2055,5.9723.4429.9382,4.01,1.84,8.0231a20.29,20.29,0,0,1,.3577,3.0759l.0913.0077a29.1883,29.1883,0,0,1,.8736-2.9709q1.4212-3.8137,2.8751-7.6213,2.9815.27,5.9631.573Z"/>
    <path class="cls-1" d="M162.1651,81.3341q-.7808-.3059-1.5631-.608c-2.3088-.9163-3.5736-2.245-3.2966-4.8841.3318-3.174,2.7023-4.6024,6.0788-4.21a9.3553,9.3553,0,0,1,4.6169,1.665l-.3812,3.0562q-1.1678-.1461-2.3363-.2862c-.0068-1.6764-.4733-2.8438-2.3408-3.0607a2.0266,2.0266,0,0,0-2.5211,1.9086c-.134,1.2069.3629,1.9611,1.9572,2.5752q.7889.2945,1.5745.5913c2.477.9733,3.945,2.5219,3.5934,5.2866-.41,3.2136-2.7616,4.72-6.5681,4.28a9.059,9.059,0,0,1-4.8224-1.799l.3143-2.9731q1.1747.1243,2.35.2534c.0008,2.0813.7839,3.0249,2.5121,3.2243,1.7076.1971,2.7479-.49,2.95-2.165.17-1.4056-.3585-2.1513-2.1171-2.8537"/>
  </g>
  <path class="cls-3" d="M113.0172,27.3082c-.1264-1.6293,0-9.0679-1.2679-13.5068-2.4344,2.7989-3.5781,4.2859-7.1023,12.0685-.127-6.1952-3.17-16-5.731-20.0581C97.2434,8.4745,94.12,19.3817,93.58,25.87c-1.0479-3.0241-4.4061-9.9126-6.5171-12.0685-.59,2.1559-1.9474,8.0338-1.1262,13.5068A17.958,17.958,0,0,0,75.5629,23.039c4.2714,2.7693,10.3738,14.0989,10.3738,14.0989a34.7,34.7,0,0,1,5.2941-1.87c-.9908-5.7828-2.3157-11.5808-2.862-14.8112a123.5984,123.5984,0,0,1,4.3779,14.4314,34.5764,34.5764,0,0,1,5.92-.8485c.0518-7.2834.0388-16.5013.5677-20.867.5487,4.5408.675,13.7876.71,20.83a24.2638,24.2638,0,0,1,5.9661.6659,125.1188,125.1188,0,0,1,4.3316-14.2115c-.54,3.1977-1.8446,8.91-2.8324,14.6331a18.837,18.837,0,0,1,4.3391,2.0486c1.7754-5.4541,11.2878-14.0989,11.2878-14.0989s-5.9608.5716-10.02,4.2692"/>
  <path class="cls-5" d="M11.8326,46.1633,17.591,92.1165a676.0632,676.0632,0,0,1,163.419,0l5.7574-45.9532A721.8815,721.8815,0,0,0,11.8326,46.1633Z"/>
  <path class="cls-1" d="M191.326,39.311a728.8616,728.8616,0,0,0-184.0526,0l-3.6351.4626,7.59,60.5663,3.6418-.4636a668.7149,668.7149,0,0,1,168.8607,0l3.6409.4636,7.59-60.5663Zm-7.4586,59.4874a669.8181,669.8181,0,0,0-169.1349,0l-2.5618.3263-7.32-58.41,2.56-.3257a727.7577,727.7577,0,0,1,183.7783,0l2.56.3257-7.32,58.41Z"/>
</svg>
